<svg xmlns="http://www.w3.org/2000/svg" width="114" height="24" viewBox="0 0 114 24"><title>logo</title><path d="M9.51,6.37a5,5,0,0,1-.95-.09,6.62,6.62,0,0,0-.24-2A1.87,1.87,0,0,0,6.67,3a1.92,1.92,0,0,0-2,1.8,2,2,0,0,0,.35,1.1c1.17,1.83,4.43,3.5,6.1,5.31a5,5,0,0,1,1.43,3.17,4.21,4.21,0,0,1-1,2.57,7,7,0,0,1-5.54,2.38,8.67,8.67,0,0,1-1.7-.16c-1.94-.37-3.23-1.47-3.23-3a3.37,3.37,0,0,1,3.19-3.28c.53,0,.75.2.75.4a.4.4,0,0,1-.14.28,1.76,1.76,0,0,0-1.56,1.63,1.41,1.41,0,0,0,.09.53c.35,1,2.07,1.67,3.65,1.67,1.3,0,2.58-.5,2.88-1.47a1.66,1.66,0,0,0,.07-.49,2.23,2.23,0,0,0-.29-1,11.48,11.48,0,0,0-3.71-3.54A9.76,9.76,0,0,1,2.51,7.07a3.94,3.94,0,0,1-.33-1.51,3.76,3.76,0,0,1,.55-1.94,4.79,4.79,0,0,1,4.14-2C8.56,1.6,11,2.72,11,4.68a2.52,2.52,0,0,1-.27,1.14A1.3,1.3,0,0,1,9.51,6.37Z"/><path d="M24.27,14.89a.78.78,0,0,1,.55.83,1.65,1.65,0,0,1,0,.31,4,4,0,0,1-2.09,2.64,2.24,2.24,0,0,1-.75.13A3,3,0,0,1,19.3,17a5.71,5.71,0,0,1-.24-1.9c0-.85.06-1.8.11-2.59s.08-1.37.08-1.94-.08-1.19-.44-1.19-1.4,2-2.15,4.21a21.72,21.72,0,0,0-1.21,4.73c0,.22-.14.33-.31.33a2.31,2.31,0,0,1-1.67-1.92c-.09-.81-.2-3.85-.2-6.91,0-3.25.13-6.36.64-7.61a1.52,1.52,0,0,1,1.47-1,2.83,2.83,0,0,1,2.51,2.49,4.63,4.63,0,0,1,.07.74C18,6.08,17,7.91,16,9.65c-.07.81-.11,1.83-.22,3.23C15.91,12.47,17,8.75,18,8a1.78,1.78,0,0,1,1.1-.35,2.82,2.82,0,0,1,2.53,1.76,5.85,5.85,0,0,1,.2,1.59c0,.77-.09,1.62-.16,2.48s-.15,1.63-.15,2.36.09,1.45.66,1.45C22.93,17.33,23.92,16.05,24.27,14.89ZM16.68,4.3c0-.57-.33-.83-.59-.83a.59.59,0,0,0-.53.46,6.82,6.82,0,0,0-.2,2c0,1.14.11,2.53.11,2.51A8.82,8.82,0,0,0,16.68,4.3Z"/><path d="M31.68,14.23c-.19,1.69-.7,3.25-1.89,4a3,3,0,0,1-1.54.4,4.61,4.61,0,0,1-3.85-2,7.92,7.92,0,0,1-.9-3.85c0-2,.64-4,1.74-4.82a2.23,2.23,0,0,1,1.3-.52,2.39,2.39,0,0,1,1.12-.25,4.07,4.07,0,0,1,1.45.29,3.56,3.56,0,0,1,2.18,2.24,11.47,11.47,0,0,1,.48,2.87A4.71,4.71,0,0,0,33.29,12a2.39,2.39,0,0,0,1.14-1.32,1.26,1.26,0,0,1,.64,1,1.92,1.92,0,0,1-.46,1.14A4.55,4.55,0,0,1,31.68,14.23Zm-5,1.34c.29,1,.75,1.65,1.25,1.65a.54.54,0,0,0,.27-.07,1.9,1.9,0,0,0,.77-1,9.78,9.78,0,0,0,.59-1.91,9.08,9.08,0,0,1-1.69-.42A5.46,5.46,0,0,1,26.34,13,9.19,9.19,0,0,0,26.69,15.57Zm3.12-2.88a5.78,5.78,0,0,0,.05-.75,5,5,0,0,0-.27-1.72,2.21,2.21,0,0,0-1.73-1.49.82.82,0,0,0-.6.26,1.45,1.45,0,0,0-.35,1,2.92,2.92,0,0,0,1,2A3.17,3.17,0,0,0,29.81,12.69Z"/><path d="M35.23,18.05c0,.95,0,2,0,2.91a9.9,9.9,0,0,0,.13,1.78,1,1,0,0,1-.39.07,1.87,1.87,0,0,1-1.76-1.37A11.19,11.19,0,0,1,33,19c0-1.21.06-2.66.13-4.09.09-2,.26-5.44.26-7.16a1.47,1.47,0,0,1,.42-.06,1.85,1.85,0,0,1,1.41.66,1.91,1.91,0,0,1,.44,1.1,2.84,2.84,0,0,1,2.49-1.74,3.19,3.19,0,0,1,1,.15c1.56.51,2.17,2.8,2.17,5a9.11,9.11,0,0,1-1.18,4.73,3.64,3.64,0,0,0,2.39-1.1A3.44,3.44,0,0,0,43.3,15c.26.05.55.31.55.86a3.58,3.58,0,0,1,0,.4,3.22,3.22,0,0,1-2.07,2.28,7.91,7.91,0,0,1-2.8.47c-.52,0-1.1,0-1.65-.05A3.52,3.52,0,0,1,35.23,18.05Zm0-1.12a2.22,2.22,0,0,0,1.23.49,1.27,1.27,0,0,0,.79-.29A4.12,4.12,0,0,0,38,15.26a19,19,0,0,0,.53-4.38c0-.59,0-1.89-.88-1.89s-1.87,1.69-2.11,3.43L35.38,15C35.33,15.52,35.31,16.21,35.27,16.93Z"/><path d="M46.71,6.5a6.35,6.35,0,0,1,1.23.2c.31.09.53.26.53.44s-.53.35-.75.64a1.54,1.54,0,0,0-.28.88,1.15,1.15,0,0,0,.15.59c.4.73.88,1.65.88,1.65a9.11,9.11,0,0,1,1.39,4.16,5.48,5.48,0,0,1-.73,2.49,10.69,10.69,0,0,0,1.45-1,3.7,3.7,0,0,0,1.19-1.67.84.84,0,0,1,.62.88,2.35,2.35,0,0,1-1,1.82A7,7,0,0,1,47.46,19c-1.81,0-4.32-.53-5.22-2.33a2.33,2.33,0,0,1-.22-1,1.33,1.33,0,0,1,.82-1.39.7.7,0,0,0,.13.18A20.3,20.3,0,0,0,43.89,12a28.86,28.86,0,0,0,.8-3,3.54,3.54,0,0,1-.12-.83,2.11,2.11,0,0,1,.09-.62A2,2,0,0,1,46.71,6.5ZM43.8,16a3.51,3.51,0,0,0,2.51,1.4,1,1,0,0,0,.42-.08,1.21,1.21,0,0,0,.51-1.17,9,9,0,0,0-.68-2.86,17.71,17.71,0,0,0-1-2.11c-.19.7-.41,1.43-.66,2.13C44.55,14.31,44,15.35,43.8,16Z"/><path d="M51.64,16.51a8.2,8.2,0,0,1-.2-2.35c0-1.32.06-3,.15-4.8,0-.24,0-.61,0-.9-.77,0-1.37-.06-1.48-.06a2.2,2.2,0,0,1-.09-.56c0-.17,0-.33.18-.37a6.55,6.55,0,0,1,1.41-.15c0-.6,0-1.08,0-1.81a7.42,7.42,0,0,1,.22-2.37.73.73,0,0,1,.55-.2c.64,0,1.45.61,1.8,2.09a5.57,5.57,0,0,1,.07,1.16c0,.33,0,.69,0,1.08l1.14,0a6.88,6.88,0,0,0,1-.06,1.07,1.07,0,0,1,.06.35c0,.35-.26.62-1,.75a8.34,8.34,0,0,1-1.3.13A12.38,12.38,0,0,1,54,9.8a41.16,41.16,0,0,0-.3,4.54c0,1.43.17,2.48.57,2.79a.77.77,0,0,0,.52.18c.88,0,2-1.19,2.2-2.47.25,0,.62.31.62.93a1.84,1.84,0,0,1-.13.68,3.22,3.22,0,0,1-3.13,2.18A2.72,2.72,0,0,1,51.64,16.51Z"/><path d="M65.78,17.22c.8,0,1.7-1.56,1.9-2.31a.87.87,0,0,1,.55.92,2.22,2.22,0,0,1-.07.49,3.26,3.26,0,0,1-2.84,2.28A3.3,3.3,0,0,1,63.58,18a1.9,1.9,0,0,1-.72-1,8.54,8.54,0,0,1-.27-2c0-.29,0-.58,0-.93,0-.09,0-.17,0-.26-.31,1-1.37,4.16-2.75,4.64a1.73,1.73,0,0,1-.57.09,2.53,2.53,0,0,1-2-1.34,7.48,7.48,0,0,1-1-3.68v-.24c0-2.24.9-4.95,2.73-5.68a3.1,3.1,0,0,1,1.16-.22A3.42,3.42,0,0,1,63,8.86c0-.25.06-.46.09-.8s.17-.33.42-.33A2.18,2.18,0,0,1,65.43,9.5c0,.21,0,.77-.11,1.43-.13,1.25-.28,2.94-.28,4.22,0,1,.11,1.83.44,2A.86.86,0,0,0,65.78,17.22Zm-4.9-1.74a19.46,19.46,0,0,0,1.8-5c-.06-.7-.64-1.69-1.36-1.69a1.11,1.11,0,0,0-.77.37c-.91.95-1.43,3.48-1.43,5.28,0,1.13.3,2.18.63,2.18S60.48,16.16,60.88,15.48Z"/><path d="M73.33,16c0-1.06.22-2.44.22-2.86a16.2,16.2,0,0,1-2,4.53,1.89,1.89,0,0,1-1.46.82,2.19,2.19,0,0,1-1.43-.6,4.91,4.91,0,0,1-1.36-2.29,8.44,8.44,0,0,1-.35-2.37,7.89,7.89,0,0,1,1-4,3.8,3.8,0,0,1,3.17-1.93,2.86,2.86,0,0,1,2.38,1.47,5.11,5.11,0,0,0,.13-.73c0-.11.22-.15.46-.15a2.49,2.49,0,0,1,1.94.95.86.86,0,0,1,.09.39c-.14.91-.05,1.59-.14,3.15-.06,1.21-.17,4.09-.17,4.36.46-.33.9-.66,1.27-1a5.7,5.7,0,0,0,1-1.06,1,1,0,0,1,.55.9,1.58,1.58,0,0,1-.33.84,8,8,0,0,1-2.69,2,6.54,6.54,0,0,1-1.23,3.39,4.23,4.23,0,0,1-3.17,1.24c-.79,0-2.57-.25-2.57-1.46a1.54,1.54,0,0,1,.22-.72,6.37,6.37,0,0,1,2.6-1.76c.68-.33,1.76-.91,1.76-.91C73.29,17.86,73.33,17.17,73.33,16ZM72.1,14.2a26.87,26.87,0,0,0,1.23-3.74c-.13-1-.81-1.73-1.47-1.73-1,0-1.77,2.33-2,4.13a12.38,12.38,0,0,0-.09,1.52c0,1.52.33,2.24.77,2.24S71.5,15.48,72.1,14.2Zm1.08,5.53a16.17,16.17,0,0,0-2,1c-.13.09-.4.29-.4.46s.36.4.78.4A1.37,1.37,0,0,0,72.71,21,4.82,4.82,0,0,0,73.18,19.73Z"/><path d="M80.15,18.41a1.12,1.12,0,0,1-.51.11A2,2,0,0,1,78,17.33a13.55,13.55,0,0,1-.35-3.79c0-.9,0-2.11,0-3,0-.7,0-1.34,0-1.84a6.21,6.21,0,0,0-.09-1.06,1.47,1.47,0,0,1,.46-.07,1.88,1.88,0,0,1,1.56,1,4.52,4.52,0,0,1,.49,2.49v.86a9.6,9.6,0,0,1,.66-1.7,2.61,2.61,0,0,1-.05-.48,3.49,3.49,0,0,1,.09-.8,2.48,2.48,0,0,1,.73-1.38A.68.68,0,0,1,82,7.4,1.81,1.81,0,0,1,83.67,9c0,.6-.9,1.63-.9,1.63A2.19,2.19,0,0,0,84.22,12a.82.82,0,0,0,.22,0A1.74,1.74,0,0,0,86,10.73c.37,0,.61.37.61.9,0,1.12-1,1.8-2.28,1.8a3.46,3.46,0,0,1-2.91-1.49,10.94,10.94,0,0,0-.81,1.71,7,7,0,0,0-.53,2.23C80.06,16.78,80.08,17.55,80.15,18.41Z"/><path d="M94.21,17.22c.79,0,1.69-1.56,1.89-2.31a.87.87,0,0,1,.55.92,1.76,1.76,0,0,1-.07.49,3.26,3.26,0,0,1-2.83,2.28A3.3,3.3,0,0,1,92,18a1.92,1.92,0,0,1-.73-1A8.44,8.44,0,0,1,91,15c0-.29,0-.58,0-.93,0-.09,0-.17,0-.26-.31,1-1.36,4.16-2.75,4.64a1.69,1.69,0,0,1-.57.09,2.52,2.52,0,0,1-2-1.34,7.48,7.48,0,0,1-1-3.68v-.24c0-2.24.91-4.95,2.73-5.68a3.15,3.15,0,0,1,1.17-.22,3.4,3.4,0,0,1,2.79,1.48,5.39,5.39,0,0,0,.09-.8c0-.22.18-.33.42-.33A2.2,2.2,0,0,1,93.86,9.5c0,.21,0,.77-.11,1.43a42.11,42.11,0,0,0-.29,4.22c0,1,.11,1.83.44,2A.91.91,0,0,0,94.21,17.22ZM89.3,15.48a19.46,19.46,0,0,0,1.8-5c-.06-.7-.63-1.69-1.36-1.69a1.11,1.11,0,0,0-.77.37c-.9.95-1.43,3.48-1.43,5.28,0,1.13.31,2.18.64,2.18S88.9,16.16,89.3,15.48Z"/><path d="M109.78,18.67a2.83,2.83,0,0,1-2.55-2.11,8.08,8.08,0,0,1-.24-2.09c0-1.08.13-2.16.13-3.35A4.54,4.54,0,0,0,107,10c-.09-.33-.22-.59-.46-.59s-.38.22-.59.62a18.31,18.31,0,0,0-1.33,3.28,23,23,0,0,0-1.12,4.73v.13a2.72,2.72,0,0,1-.72.11,1.58,1.58,0,0,1-1.65-1.06,2.79,2.79,0,0,1-.07-.68c0-.77.15-1.83.2-3.1,0-.49,0-1,0-1.5,0-1.34-.09-2.48-.55-2.48s-1.23,1.91-1.87,4a22.66,22.66,0,0,0-1,4.8,1,1,0,0,1-.38.06c-.77,0-2-.61-2.07-1.45,0-.31,0-.75,0-1.25,0-1,0-2.23.11-3.17.07-1.21.18-2.11.18-3A9,9,0,0,0,95.53,8,1.5,1.5,0,0,1,96,8a1.92,1.92,0,0,1,1.71,1,4.87,4.87,0,0,1,.24,1.74c0,.2,0,.42-.15,3a31.66,31.66,0,0,1,1.12-3.71c.38-1,.82-2.18,2.11-2.18a2.6,2.6,0,0,1,2.27,1.58,6.29,6.29,0,0,1,.37,2.4c0,.48,0,.95,0,1.61a29.71,29.71,0,0,1,1.25-3.66c.38-1,1.06-2,2.05-2a2.66,2.66,0,0,1,2.58,2,5.27,5.27,0,0,1,.15,1.35c0,.66-.07,1.36-.11,2.08,0,.45-.11,1.39-.11,2.25s.07,1.56.37,1.76a.52.52,0,0,0,.36.11,1.38,1.38,0,0,0,1-.64,5.73,5.73,0,0,0,1-1.76.85.85,0,0,1,.55.9,2.18,2.18,0,0,1-.06.49,4,4,0,0,1-2.29,2.37A1.57,1.57,0,0,1,109.78,18.67Z"/></svg>